<svg xmlns="http://www.w3.org/2000/svg" xmlns:xlink="http://www.w3.org/1999/xlink" width="600" zoomAndPan="magnify" viewBox="0 0 450 225" height="300" preserveAspectRatio="xMidYMid meet" version="1.0"><defs><g/><clipPath id="e7848b39af"><path d="M 392 47 L 450 47 L 450 93 L 392 93 Z M 392 47 " clip-rule="nonzero"/></clipPath><clipPath id="983b811991"><path d="M 402.988281 28.226562 L 463.371094 70.132812 L 437.289062 107.71875 L 376.902344 65.8125 Z M 402.988281 28.226562 " clip-rule="nonzero"/></clipPath><clipPath id="a901be6ba1"><path d="M 402.988281 28.226562 L 463.371094 70.132812 L 437.289062 107.71875 L 376.902344 65.8125 Z M 402.988281 28.226562 " clip-rule="nonzero"/></clipPath><clipPath id="62200f707f"><path d="M 403 50 L 414 50 L 414 57 L 403 57 Z M 403 50 " clip-rule="nonzero"/></clipPath><clipPath id="c488fbcc38"><path d="M 402.988281 28.226562 L 463.371094 70.132812 L 437.289062 107.71875 L 376.902344 65.8125 Z M 402.988281 28.226562 " clip-rule="nonzero"/></clipPath><clipPath id="988d3679a8"><path d="M 402.988281 28.226562 L 463.371094 70.132812 L 437.289062 107.71875 L 376.902344 65.8125 Z M 402.988281 28.226562 " clip-rule="nonzero"/></clipPath><clipPath id="fcd4f751e6"><path d="M 410 50 L 428 50 L 428 64 L 410 64 Z M 410 50 " clip-rule="nonzero"/></clipPath><clipPath id="01e02bb3ec"><path d="M 402.988281 28.226562 L 463.371094 70.132812 L 437.289062 107.71875 L 376.902344 65.8125 Z M 402.988281 28.226562 " clip-rule="nonzero"/></clipPath><clipPath id="67fde308ed"><path d="M 402.988281 28.226562 L 463.371094 70.132812 L 437.289062 107.71875 L 376.902344 65.8125 Z M 402.988281 28.226562 " clip-rule="nonzero"/></clipPath><clipPath id="f7c95f7754"><path d="M 415 55 L 436 55 L 436 72 L 415 72 Z M 415 55 " clip-rule="nonzero"/></clipPath><clipPath id="8c2a569082"><path d="M 402.988281 28.226562 L 463.371094 70.132812 L 437.289062 107.71875 L 376.902344 65.8125 Z M 402.988281 28.226562 " clip-rule="nonzero"/></clipPath><clipPath id="ba72567787"><path d="M 402.988281 28.226562 L 463.371094 70.132812 L 437.289062 107.71875 L 376.902344 65.8125 Z M 402.988281 28.226562 " clip-rule="nonzero"/></clipPath><clipPath id="c7e51a9a59"><path d="M 422 59 L 439 59 L 439 73 L 422 73 Z M 422 59 " clip-rule="nonzero"/></clipPath><clipPath id="2280fcb4a8"><path d="M 402.988281 28.226562 L 463.371094 70.132812 L 437.289062 107.71875 L 376.902344 65.8125 Z M 402.988281 28.226562 " clip-rule="nonzero"/></clipPath><clipPath id="c27342a6d7"><path d="M 402.988281 28.226562 L 463.371094 70.132812 L 437.289062 107.71875 L 376.902344 65.8125 Z M 402.988281 28.226562 " clip-rule="nonzero"/></clipPath><clipPath id="3a64f74585"><path d="M 428 63 L 442 63 L 442 75 L 428 75 Z M 428 63 " clip-rule="nonzero"/></clipPath><clipPath id="5e7f11a6fe"><path d="M 402.988281 28.226562 L 463.371094 70.132812 L 437.289062 107.71875 L 376.902344 65.8125 Z M 402.988281 28.226562 " clip-rule="nonzero"/></clipPath><clipPath id="35eef81eb0"><path d="M 402.988281 28.226562 L 463.371094 70.132812 L 437.289062 107.71875 L 376.902344 65.8125 Z M 402.988281 28.226562 " clip-rule="nonzero"/></clipPath><clipPath id="2b16838ea2"><path d="M 439 68 L 446 68 L 446 73 L 439 73 Z M 439 68 " clip-rule="nonzero"/></clipPath><clipPath id="dae7c8112b"><path d="M 402.988281 28.226562 L 463.371094 70.132812 L 437.289062 107.71875 L 376.902344 65.8125 Z M 402.988281 28.226562 " clip-rule="nonzero"/></clipPath><clipPath id="fad98feec8"><path d="M 402.988281 28.226562 L 463.371094 70.132812 L 437.289062 107.71875 L 376.902344 65.8125 Z M 402.988281 28.226562 " clip-rule="nonzero"/></clipPath><clipPath id="192e700f0c"><path d="M 445 70 L 450 70 L 450 74 L 445 74 Z M 445 70 " clip-rule="nonzero"/></clipPath><clipPath id="7113361fb5"><path d="M 402.988281 28.226562 L 463.371094 70.132812 L 437.289062 107.71875 L 376.902344 65.8125 Z M 402.988281 28.226562 " clip-rule="nonzero"/></clipPath><clipPath id="9944f44473"><path d="M 402.988281 28.226562 L 463.371094 70.132812 L 437.289062 107.71875 L 376.902344 65.8125 Z M 402.988281 28.226562 " clip-rule="nonzero"/></clipPath><clipPath id="7d6aa7a8a1"><path d="M 403 74 L 427 74 L 427 86 L 403 86 Z M 403 74 " clip-rule="nonzero"/></clipPath><clipPath id="087778b49a"><path d="M 402.988281 28.226562 L 463.371094 70.132812 L 437.289062 107.71875 L 376.902344 65.8125 Z M 402.988281 28.226562 " clip-rule="nonzero"/></clipPath><clipPath id="5c4e601e93"><path d="M 402.988281 28.226562 L 463.371094 70.132812 L 437.289062 107.71875 L 376.902344 65.8125 Z M 402.988281 28.226562 " clip-rule="nonzero"/></clipPath><clipPath id="10504e6110"><path d="M 388 48 L 393 48 L 393 54 L 388 54 Z M 388 48 " clip-rule="nonzero"/></clipPath><clipPath id="50d9a1a69f"><path d="M 402.988281 28.226562 L 463.371094 70.132812 L 437.289062 107.71875 L 376.902344 65.8125 Z M 402.988281 28.226562 " clip-rule="nonzero"/></clipPath><clipPath id="2e301c8284"><path d="M 402.988281 28.226562 L 463.371094 70.132812 L 437.289062 107.71875 L 376.902344 65.8125 Z M 402.988281 28.226562 " clip-rule="nonzero"/></clipPath><clipPath id="b12b1e4d6f"><path d="M 382 52 L 390 52 L 390 63 L 382 63 Z M 382 52 " clip-rule="nonzero"/></clipPath><clipPath id="45b566c25c"><path d="M 402.988281 28.226562 L 463.371094 70.132812 L 437.289062 107.71875 L 376.902344 65.8125 Z M 402.988281 28.226562 " clip-rule="nonzero"/></clipPath><clipPath id="420a011136"><path d="M 402.988281 28.226562 L 463.371094 70.132812 L 437.289062 107.71875 L 376.902344 65.8125 Z M 402.988281 28.226562 " clip-rule="nonzero"/></clipPath><clipPath id="d0096e2ed8"><path d="M 385 53 L 390 53 L 390 64 L 385 64 Z M 385 53 " clip-rule="nonzero"/></clipPath><clipPath id="12a661a692"><path d="M 402.988281 28.226562 L 463.371094 70.132812 L 437.289062 107.71875 L 376.902344 65.8125 Z M 402.988281 28.226562 " clip-rule="nonzero"/></clipPath><clipPath id="b25ab07baf"><path d="M 402.988281 28.226562 L 463.371094 70.132812 L 437.289062 107.71875 L 376.902344 65.8125 Z M 402.988281 28.226562 " clip-rule="nonzero"/></clipPath><clipPath id="ae584274c4"><path d="M 386 53 L 391 53 L 391 65 L 386 65 Z M 386 53 " clip-rule="nonzero"/></clipPath><clipPath id="120e7c05a1"><path d="M 402.988281 28.226562 L 463.371094 70.132812 L 437.289062 107.71875 L 376.902344 65.8125 Z M 402.988281 28.226562 " clip-rule="nonzero"/></clipPath><clipPath id="0ba35e1b23"><path d="M 402.988281 28.226562 L 463.371094 70.132812 L 437.289062 107.71875 L 376.902344 65.8125 Z M 402.988281 28.226562 " clip-rule="nonzero"/></clipPath><clipPath id="b4b2dafd9a"><path d="M 388 54 L 392 54 L 392 65 L 388 65 Z M 388 54 " clip-rule="nonzero"/></clipPath><clipPath id="8f77bc09bd"><path d="M 402.988281 28.226562 L 463.371094 70.132812 L 437.289062 107.71875 L 376.902344 65.8125 Z M 402.988281 28.226562 " clip-rule="nonzero"/></clipPath><clipPath id="fde4d4069d"><path d="M 402.988281 28.226562 L 463.371094 70.132812 L 437.289062 107.71875 L 376.902344 65.8125 Z M 402.988281 28.226562 " clip-rule="nonzero"/></clipPath></defs><g clip-path="url(#e7848b39af)"><g clip-path="url(#983b811991)"><g clip-path="url(#a901be6ba1)"><path fill="#ffffff" d="M 442.597656 76.507812 C 442.628906 76.433594 442.65625 76.355469 442.691406 76.273438 C 442.734375 76.277344 442.769531 76.277344 442.804688 76.28125 C 442.734375 76.351562 442.664062 76.433594 442.597656 76.507812 Z M 406.546875 83.898438 C 404.851562 82.960938 403.203125 81.855469 401.820312 80.519531 C 405.210938 82.683594 408.675781 84.714844 412.363281 86.363281 C 412.496094 86.417969 412.617188 86.464844 412.738281 86.511719 C 412.703125 86.582031 412.699219 86.65625 412.730469 86.734375 C 410.609375 85.925781 408.535156 85 406.546875 83.898438 Z M 434.960938 90.738281 C 434.953125 90.734375 434.9375 90.738281 434.925781 90.738281 C 434.148438 90.859375 433.34375 90.929688 432.527344 90.949219 C 432.394531 90.917969 432.277344 90.882812 432.171875 90.859375 C 431.808594 90.761719 431.449219 90.644531 431.085938 90.511719 C 431.496094 90.507812 431.90625 90.503906 432.304688 90.496094 C 433.164062 90.464844 434.234375 90.476562 435.167969 90.285156 C 435.097656 90.4375 435.03125 90.585938 434.960938 90.738281 Z M 434.699219 91.339844 C 434.503906 91.347656 434.300781 91.328125 434.082031 91.296875 C 434.328125 91.238281 434.570312 91.164062 434.8125 91.09375 C 434.769531 91.171875 434.734375 91.253906 434.699219 91.339844 Z M 424.4375 89.433594 C 425.28125 89.71875 426.136719 89.949219 427.023438 90.121094 C 427.015625 90.257812 427.066406 90.402344 427.152344 90.523438 C 425.417969 90.246094 423.71875 89.882812 422.128906 89.523438 C 421.933594 89.472656 421.75 89.425781 421.566406 89.382812 C 422.542969 89.558594 423.527344 89.640625 424.382812 89.464844 C 424.402344 89.453125 424.421875 89.441406 424.4375 89.433594 Z M 399.007812 76.070312 C 398.984375 75.984375 398.972656 75.878906 398.96875 75.765625 C 399.617188 76.914062 400.714844 77.988281 401.519531 78.644531 C 403.746094 80.488281 406.554688 81.5625 409.296875 82.453125 C 410.28125 82.96875 411.28125 83.472656 412.292969 83.945312 C 415.785156 85.574219 420.015625 87.441406 423.890625 87.378906 C 424.234375 87.367188 424.21875 86.886719 423.890625 86.828125 C 421.925781 86.449219 420.023438 86.140625 418.101562 85.511719 C 416.058594 84.851562 414.082031 83.972656 412.144531 83.0625 C 408.980469 81.5625 405.851562 79.96875 402.671875 78.519531 C 401.78125 77.851562 400.984375 77.082031 400.34375 76.195312 C 399.632812 75.222656 399.671875 74.164062 399.214844 73.152344 C 400.046875 74.414062 401.652344 75.46875 402.820312 76.0625 C 405.246094 77.289062 408.1875 77.601562 410.195312 79.558594 C 410.210938 79.582031 410.25 79.546875 410.230469 79.523438 C 408.867188 77.882812 406.761719 77.054688 404.84375 76.144531 C 403.660156 75.589844 402.476562 75.019531 401.453125 74.203125 C 400.28125 73.269531 400.15625 72.089844 399.382812 70.996094 C 399.324219 70.921875 399.261719 70.878906 399.191406 70.855469 C 399.347656 70.167969 399.507812 69.488281 399.683594 68.804688 C 400.304688 70.652344 402.265625 72.410156 403.757812 73.605469 C 405.777344 75.230469 408.296875 76.238281 410.847656 76.613281 C 410.886719 76.628906 410.886719 76.578125 410.855469 76.570312 C 408.496094 76.003906 406.4375 74.898438 404.496094 73.453125 C 403.535156 72.753906 402.683594 71.910156 401.925781 71.019531 C 401.140625 70.117188 400.667969 69.019531 399.875 68.144531 C 399.867188 68.140625 399.867188 68.140625 399.859375 68.132812 C 399.992188 67.648438 400.132812 67.15625 400.277344 66.671875 C 402.867188 69.886719 406.894531 72.332031 410.902344 73.433594 C 410.96875 73.441406 410.980469 73.355469 410.925781 73.328125 C 407.050781 71.359375 403.195312 69.226562 400.5625 65.777344 C 400.96875 64.519531 401.4375 63.292969 401.972656 62.105469 C 402.304688 63.476562 403.726562 65.097656 404.570312 66.070312 C 405.800781 67.488281 407.339844 68.773438 409.167969 69.417969 C 409.265625 69.449219 409.328125 69.324219 409.226562 69.277344 C 407.328125 68.464844 405.929688 66.992188 404.742188 65.410156 C 404.132812 64.601562 403.589844 63.742188 403.097656 62.863281 C 402.820312 62.367188 402.671875 61.894531 402.265625 61.480469 C 402.457031 61.0625 402.664062 60.664062 402.875 60.257812 C 403.070312 60.453125 403.261719 60.644531 403.453125 60.835938 C 405.789062 63.179688 407.820312 65.875 409.71875 68.515625 C 412.003906 71.671875 414.097656 75 415.609375 78.511719 C 415.730469 78.789062 416.03125 78.890625 416.304688 78.824219 C 424.652344 76.96875 433.339844 76.4375 442.058594 76.289062 C 441.773438 76.871094 441.480469 77.464844 441.191406 78.054688 C 439.128906 78.316406 436.792969 77.800781 434.820312 77.199219 C 434.804688 77.203125 434.792969 77.21875 434.808594 77.230469 C 436.859375 77.917969 438.914062 78.625 440.984375 78.476562 C 440.890625 78.675781 440.792969 78.871094 440.691406 79.066406 C 440.398438 79.523438 440.121094 79.992188 439.851562 80.453125 C 439.746094 80.378906 439.609375 80.332031 439.472656 80.359375 C 437.171875 80.828125 435.304688 80.636719 433.003906 79.796875 C 431.550781 79.269531 430.132812 78.621094 428.632812 78.214844 C 428.574219 78.199219 428.546875 78.289062 428.605469 78.304688 C 431.824219 79.6875 435.863281 82.558594 439.402344 81.234375 C 439.234375 81.527344 439.070312 81.832031 438.902344 82.125 C 438.792969 82.335938 438.675781 82.554688 438.5625 82.777344 C 438 82.855469 437.433594 82.929688 436.832031 82.886719 C 435.539062 82.804688 434.253906 82.476562 433 82.113281 C 430.375 81.347656 427.835938 80.328125 425.324219 79.257812 C 425.222656 79.214844 425.164062 79.351562 425.253906 79.390625 C 427.738281 80.625 430.265625 81.882812 432.921875 82.707031 C 434.175781 83.109375 436.332031 83.726562 438.101562 83.679688 C 437.734375 84.414062 437.394531 85.148438 437.0625 85.902344 C 434.65625 85.589844 432.46875 85.191406 430.101562 84.328125 C 427.667969 83.433594 425.289062 82.394531 422.894531 81.417969 C 422.832031 81.386719 422.792969 81.476562 422.851562 81.507812 C 425.316406 82.773438 427.730469 84.085938 430.320312 85.09375 C 432.285156 85.855469 434.558594 86.628906 436.703125 86.710938 C 436.542969 87.082031 436.390625 87.457031 436.222656 87.832031 C 436.15625 87.808594 436.085938 87.808594 436.011719 87.828125 C 431.890625 88.765625 426.457031 86.867188 422.855469 84.644531 C 422.796875 84.605469 422.738281 84.671875 422.789062 84.71875 C 424.539062 86.378906 426.882812 87.273438 429.167969 87.980469 C 431.320312 88.65625 433.671875 89.0625 435.855469 88.691406 C 435.789062 88.851562 435.71875 89.007812 435.652344 89.175781 C 434.644531 89.125 433.546875 89.398438 432.601562 89.484375 C 431.242188 89.613281 429.859375 89.625 428.480469 89.523438 C 425.664062 89.308594 422.824219 88.359375 420.183594 87.308594 C 420.136719 87.285156 420.078125 87.355469 420.132812 87.394531 C 420.871094 87.847656 421.617188 88.242188 422.375 88.597656 C 421.164062 88.410156 419.933594 88.285156 418.757812 87.976562 C 416.507812 87.375 414.335938 86.503906 412.203125 85.5625 C 408.414062 83.882812 404.730469 81.894531 401.136719 79.832031 C 401.074219 79.765625 400.992188 79.695312 400.9375 79.621094 C 400.300781 78.914062 399.785156 78.136719 399.40625 77.308594 C 399.226562 76.910156 399.097656 76.492188 399.007812 76.070312 Z M 398.78125 72.863281 C 398.808594 72.738281 398.832031 72.597656 398.855469 72.460938 C 398.917969 72.609375 398.988281 72.753906 399.0625 72.902344 C 398.980469 72.832031 398.863281 72.8125 398.78125 72.863281 Z M 393.507812 47.882812 C 396.789062 48.175781 400.078125 48.503906 403.382812 48.8125 C 401.890625 49.496094 400.484375 50.320312 399.460938 51.570312 C 399.402344 51.636719 399.527344 51.75 399.59375 51.671875 C 400.585938 50.394531 402.003906 49.539062 403.496094 48.820312 C 404.832031 48.953125 406.167969 49.078125 407.503906 49.1875 C 404.808594 50.488281 402.136719 51.886719 400.324219 54.222656 C 400.226562 54.347656 400.441406 54.519531 400.535156 54.382812 C 402.359375 51.996094 405.089844 50.5625 407.84375 49.21875 C 411.433594 49.523438 415.023438 49.78125 418.621094 49.910156 C 414.824219 52.886719 410.542969 55.308594 406.808594 58.363281 C 406.511719 58.601562 406.894531 59.117188 407.195312 58.871094 C 411.042969 55.796875 415.308594 53.148438 419.007812 49.925781 C 423.175781 50.058594 427.328125 50.019531 431.441406 49.679688 C 431.8125 50.09375 432.171875 50.511719 432.542969 50.925781 C 428.824219 52.726562 425.695312 55.410156 422.707031 58.09375 C 420.972656 59.664062 419.339844 61.34375 417.683594 62.988281 C 416.882812 63.78125 416.089844 64.5625 415.292969 65.34375 C 414.664062 65.960938 413.722656 66.558594 413.394531 67.390625 C 413.328125 67.558594 413.515625 67.773438 413.707031 67.703125 C 414.40625 67.46875 414.828125 66.894531 415.335938 66.40625 C 416.125 65.632812 416.90625 64.851562 417.671875 64.074219 C 419.3125 62.417969 420.941406 60.757812 422.609375 59.128906 C 425.679688 56.15625 428.75 53.097656 432.613281 51.011719 C 440.027344 59.433594 447.019531 68.65625 456.417969 75.167969 C 452.464844 75.1875 448.5 75.175781 444.535156 75.222656 C 444.628906 75.046875 444.40625 74.785156 444.21875 74.929688 C 444.101562 75.03125 443.984375 75.128906 443.871094 75.230469 C 434.582031 75.351562 425.3125 75.828125 416.398438 77.773438 C 413.753906 71.84375 409.640625 66.179688 405.183594 61.257812 C 401.386719 57.074219 394.984375 53.449219 393.507812 47.882812 Z M 458.289062 75.160156 C 458.246094 75.101562 458.195312 75.054688 458.121094 75.003906 C 447.691406 68.152344 440.78125 57.867188 431.820312 49.546875 C 432.242188 49.214844 432.007812 48.367188 431.289062 48.421875 C 427.679688 48.691406 424.054688 48.722656 420.429688 48.632812 C 420.738281 48.328125 421.058594 48.023438 421.359375 47.703125 C 421.402344 47.660156 421.320312 47.59375 421.273438 47.644531 C 420.921875 47.976562 420.550781 48.304688 420.175781 48.621094 C 411.0625 48.390625 401.921875 47.402344 392.800781 47.320312 C 392.488281 47.320312 392.496094 47.792969 392.796875 47.824219 C 392.976562 47.839844 393.15625 47.855469 393.34375 47.863281 C 393.828125 50.253906 395.363281 52.316406 396.988281 54.203125 C 398.734375 56.21875 400.683594 58.085938 402.582031 59.96875 C 399.464844 64.617188 398.085938 70.15625 397.132812 75.636719 C 397.070312 75.964844 397.316406 76.183594 397.59375 76.246094 C 397.703125 76.644531 397.847656 77.035156 397.949219 77.320312 C 398.589844 79.085938 399.945312 80.601562 401.375 81.882812 C 406.09375 86.070312 412.757812 88.363281 418.769531 89.964844 C 419.222656 90.085938 419.6875 90.207031 420.152344 90.3125 C 421.402344 90.757812 422.648438 91.167969 423.917969 91.53125 C 426.980469 92.410156 430.378906 92.738281 433.5 92.257812 C 433.65625 92.238281 433.808594 92.210938 433.960938 92.183594 C 434.21875 92.136719 434.484375 92.078125 434.742188 92.019531 C 435.027344 92.371094 435.679688 92.476562 435.90625 91.984375 C 437.214844 89.109375 438.417969 86.171875 439.769531 83.328125 C 439.933594 83.246094 440.074219 83.164062 440.210938 83.054688 C 440.371094 82.925781 440.300781 82.699219 440.101562 82.644531 C 441.175781 80.4375 442.355469 78.289062 443.773438 76.265625 C 448.671875 76.207031 453.574219 76.246094 458.417969 76.21875 C 459.144531 76.21875 459 75.171875 458.289062 75.160156 Z M 458.289062 75.160156 " fill-opacity="1" fill-rule="evenodd"/></g></g></g><g clip-path="url(#62200f707f)"><g clip-path="url(#c488fbcc38)"><g clip-path="url(#988d3679a8)"><path fill="#ffffff" d="M 412.980469 50.453125 C 413.152344 50.429688 413.117188 50.1875 412.941406 50.199219 C 409.234375 50.484375 406.34375 53.632812 403.820312 55.808594 C 403.675781 55.925781 403.875 56.160156 404.039062 56.09375 C 407.492188 54.824219 408.988281 50.960938 412.980469 50.453125 Z M 412.980469 50.453125 " fill-opacity="1" fill-rule="evenodd"/></g></g></g><g clip-path="url(#fcd4f751e6)"><g clip-path="url(#01e02bb3ec)"><g clip-path="url(#67fde308ed)"><path fill="#ffffff" d="M 410.957031 63.210938 C 416.417969 59.085938 420.4375 52.878906 427.226562 50.429688 C 427.292969 50.402344 427.246094 50.3125 427.1875 50.332031 C 420.113281 52.472656 416.035156 58.484375 410.507812 62.621094 C 410.136719 62.894531 410.597656 63.492188 410.957031 63.210938 Z M 410.957031 63.210938 " fill-opacity="1" fill-rule="evenodd"/></g></g></g><g clip-path="url(#f7c95f7754)"><g clip-path="url(#8c2a569082)"><g clip-path="url(#ba72567787)"><path fill="#ffffff" d="M 415.757812 71.214844 C 419.253906 69.519531 422.222656 66.609375 425.058594 64.105469 C 428.316406 61.238281 431.472656 58.277344 434.949219 55.644531 C 435.128906 55.507812 434.902344 55.214844 434.714844 55.347656 C 431.5625 57.667969 428.652344 60.238281 425.710938 62.785156 C 424.007812 64.257812 422.285156 65.703125 420.503906 67.097656 C 418.859375 68.382812 417.042969 69.464844 415.398438 70.75 C 415.113281 70.972656 415.429688 71.375 415.757812 71.214844 Z M 415.757812 71.214844 " fill-opacity="1" fill-rule="evenodd"/></g></g></g><g clip-path="url(#c7e51a9a59)"><g clip-path="url(#2280fcb4a8)"><g clip-path="url(#c27342a6d7)"><path fill="#ffffff" d="M 423.273438 72.109375 C 428.375 68.152344 433.46875 64.191406 438.5 60.152344 C 438.601562 60.078125 438.476562 59.90625 438.363281 59.984375 C 433.1875 63.839844 427.910156 67.566406 422.8125 71.511719 C 422.453125 71.789062 422.910156 72.394531 423.273438 72.109375 Z M 423.273438 72.109375 " fill-opacity="1" fill-rule="evenodd"/></g></g></g><g clip-path="url(#3a64f74585)"><g clip-path="url(#5e7f11a6fe)"><g clip-path="url(#35eef81eb0)"><path fill="#ffffff" d="M 428.148438 74.085938 C 427.980469 74.242188 428.222656 74.53125 428.429688 74.457031 C 430.867188 73.667969 432.953125 71.507812 434.769531 69.886719 C 437.128906 67.800781 439.371094 65.585938 441.867188 63.628906 C 441.941406 63.574219 441.847656 63.449219 441.765625 63.5 C 439.425781 65.179688 437.289062 67.070312 435.089844 68.894531 C 433.914062 69.882812 432.695312 70.824219 431.46875 71.765625 C 430.40625 72.574219 429.152344 73.207031 428.148438 74.085938 Z M 428.148438 74.085938 " fill-opacity="1" fill-rule="evenodd"/></g></g></g><g clip-path="url(#2b16838ea2)"><g clip-path="url(#dae7c8112b)"><g clip-path="url(#fad98feec8)"><path fill="#ffffff" d="M 440.234375 72.105469 C 441.171875 71.769531 441.917969 70.917969 442.675781 70.328125 C 443.523438 69.65625 444.425781 69.046875 445.40625 68.546875 C 445.589844 68.457031 445.414062 68.15625 445.222656 68.242188 C 444.304688 68.636719 443.464844 69.121094 442.632812 69.664062 C 441.746094 70.234375 440.535156 70.859375 439.917969 71.695312 C 439.785156 71.890625 439.96875 72.210938 440.234375 72.105469 Z M 440.234375 72.105469 " fill-opacity="1" fill-rule="evenodd"/></g></g></g><g clip-path="url(#192e700f0c)"><g clip-path="url(#7113361fb5)"><g clip-path="url(#9944f44473)"><path fill="#ffffff" d="M 445.898438 73.429688 C 447.445312 73.746094 448.871094 72.058594 449.300781 70.886719 C 449.347656 70.730469 449.125 70.636719 449.042969 70.773438 C 448.675781 71.371094 448.253906 71.878906 447.652344 72.28125 C 447.089844 72.660156 446.34375 72.679688 445.796875 73.058594 C 445.652344 73.160156 445.707031 73.390625 445.898438 73.429688 Z M 445.898438 73.429688 " fill-opacity="1" fill-rule="evenodd"/></g></g></g><g clip-path="url(#7d6aa7a8a1)"><g clip-path="url(#087778b49a)"><g clip-path="url(#5c4e601e93)"><path fill="#ffffff" d="M 426.628906 84.933594 C 424.796875 83.878906 422.695312 83.1875 420.753906 82.382812 C 418.828125 81.585938 416.90625 80.804688 414.992188 79.992188 C 411.101562 78.351562 407.304688 76.53125 403.640625 74.445312 C 403.492188 74.355469 403.390625 74.585938 403.53125 74.671875 C 407.160156 76.828125 410.929688 78.722656 414.777344 80.457031 C 416.671875 81.3125 418.585938 82.125 420.5 82.914062 C 422.476562 83.722656 424.472656 84.710938 426.527344 85.269531 C 426.757812 85.335938 426.796875 85.039062 426.628906 84.933594 Z M 426.628906 84.933594 " fill-opacity="1" fill-rule="evenodd"/></g></g></g><g clip-path="url(#10504e6110)"><g clip-path="url(#50d9a1a69f)"><g clip-path="url(#2e301c8284)"><path fill="#ffffff" d="M 390.339844 50.140625 C 390.488281 50.015625 390.726562 49.878906 390.921875 50.027344 C 390.96875 50.0625 391.011719 50.089844 391.039062 50.132812 C 391.429688 50.585938 391.015625 51.390625 390.671875 51.871094 C 390.175781 51.671875 389.714844 51.386719 389.496094 50.890625 C 389.785156 50.644531 390.050781 50.386719 390.339844 50.140625 Z M 389.378906 52.355469 C 389.878906 53.015625 390.621094 53.542969 391.359375 53.863281 C 391.535156 53.9375 391.808594 53.921875 391.914062 53.769531 C 392.660156 52.640625 392.75 51.441406 392.296875 50.40625 C 392.230469 49.988281 392.035156 49.578125 391.640625 49.21875 C 391.570312 49.160156 391.492188 49.101562 391.414062 49.058594 C 391.449219 49.058594 391.484375 49.0625 391.519531 49.0625 C 391.710938 49.0625 391.707031 48.773438 391.523438 48.765625 C 391.292969 48.734375 391.058594 48.742188 390.835938 48.753906 C 390.5 48.53125 390.121094 48.332031 389.699219 48.183594 C 389.390625 48.078125 389.152344 48.164062 388.996094 48.402344 C 388.503906 49.167969 388.09375 50.121094 388.402344 51.066406 C 388.578125 51.609375 388.9375 52.027344 389.378906 52.355469 Z M 389.378906 52.355469 " fill-opacity="1" fill-rule="evenodd"/></g></g></g><g clip-path="url(#b12b1e4d6f)"><g clip-path="url(#45b566c25c)"><g clip-path="url(#420a011136)"><path fill="#ffffff" d="M 385.652344 57.121094 C 386.785156 55.503906 388.042969 53.988281 389.273438 52.453125 C 389.355469 52.351562 389.191406 52.226562 389.101562 52.320312 C 387.523438 53.941406 385.890625 55.5 384.605469 57.355469 C 383.765625 58.5625 382.085938 61.035156 382.859375 62.628906 C 382.945312 62.8125 383.210938 62.828125 383.308594 62.652344 C 383.683594 61.941406 383.640625 61 383.914062 60.226562 C 384.316406 59.113281 384.980469 58.085938 385.652344 57.121094 Z M 385.652344 57.121094 " fill-opacity="1" fill-rule="evenodd"/></g></g></g><g clip-path="url(#d0096e2ed8)"><g clip-path="url(#12a661a692)"><g clip-path="url(#b25ab07baf)"><path fill="#ffffff" d="M 386.816406 58.027344 C 387.363281 56.242188 388.308594 54.605469 389.550781 53.210938 C 389.566406 53.183594 389.53125 53.148438 389.511719 53.179688 C 388.144531 54.527344 387.175781 56.101562 386.449219 57.855469 C 385.808594 59.394531 385.148438 61.398438 385.46875 63.109375 C 385.519531 63.347656 385.839844 63.351562 385.890625 63.136719 C 386.328125 61.457031 386.296875 59.707031 386.816406 58.027344 Z M 386.816406 58.027344 " fill-opacity="1" fill-rule="evenodd"/></g></g></g><g clip-path="url(#ae584274c4)"><g clip-path="url(#120e7c05a1)"><g clip-path="url(#0ba35e1b23)"><path fill="#ffffff" d="M 389.980469 53.988281 C 389.972656 53.863281 389.769531 53.878906 389.765625 54.003906 C 389.804688 56.136719 389.390625 58.128906 388.660156 60.097656 C 388.109375 61.566406 386.996094 63.097656 386.839844 64.671875 C 386.8125 64.894531 387.113281 65.03125 387.269531 64.863281 C 388.449219 63.625 388.953125 61.453125 389.421875 59.84375 C 389.980469 57.953125 390.160156 55.988281 389.980469 53.988281 Z M 389.980469 53.988281 " fill-opacity="1" fill-rule="evenodd"/></g></g></g><g clip-path="url(#b4b2dafd9a)"><g clip-path="url(#8f77bc09bd)"><g clip-path="url(#fde4d4069d)"><path fill="#ffffff" d="M 391.101562 54.527344 C 391.085938 54.464844 390.988281 54.484375 391 54.539062 C 391.289062 56.289062 390.996094 57.9375 390.695312 59.613281 C 390.367188 61.414062 389.359375 62.9375 388.945312 64.667969 C 388.886719 64.925781 389.269531 65.050781 389.425781 64.894531 C 390.667969 63.6875 391.070312 61.386719 391.390625 59.746094 C 391.730469 58.070312 391.617188 56.214844 391.101562 54.527344 Z M 391.101562 54.527344 " fill-opacity="1" fill-rule="evenodd"/></g></g></g><g fill="#ffbd59" fill-opacity="1"><g transform="translate(277.098627, 191.041436)"><g><path d="M -119.699219 -23.601562 C -119.699219 -12.476562 -112.617188 -6.742188 -101.828125 -6.742188 L -16.183594 -6.742188 C -5.730469 -6.742188 1.6875 -12.476562 1.6875 -23.601562 C 1.6875 -34.730469 -5.730469 -40.460938 -16.183594 -40.460938 L -101.828125 -40.460938 C -112.617188 -40.460938 -119.699219 -34.730469 -119.699219 -23.601562 Z M -119.699219 -23.601562 "/></g></g></g><g fill="#5ce1e6" fill-opacity="1"><g transform="translate(-4.170119, 67.676416)"><g><path d="M 54 -30.660156 C 50.300781 -34.949219 45.667969 -34.808594 41.507812 -31.222656 L 8.480469 -2.777344 C 4.449219 0.695312 3.492188 5.371094 7.191406 9.660156 C 10.886719 13.953125 15.652344 13.699219 19.679688 10.226562 L 52.707031 -18.222656 C 56.867188 -21.804688 57.695312 -26.367188 54 -30.660156 Z M 54 -30.660156 "/></g></g></g><g fill="#ff8bd2" fill-opacity="1"><g transform="translate(398.057155, 185.909897)"><g><path d="M 47.375 -39.417969 C 43.015625 -42.960938 38.511719 -42.007812 35.074219 -37.777344 L 7.796875 -4.199219 C 4.46875 -0.101562 4.355469 4.632812 8.71875 8.179688 C 13.082031 11.722656 17.691406 10.640625 21.019531 6.539062 L 48.296875 -27.039062 C 51.730469 -31.269531 51.738281 -35.871094 47.375 -39.417969 Z M 47.375 -39.417969 "/></g></g></g><path stroke-linecap="butt" transform="matrix(1.214009, 0, 0, 1.214009, 10.786855, 51.799577)" fill="none" stroke-linejoin="miter" d="M 15.999956 20.507051 C 10.665098 20.507051 8.074893 23.818009 8.074893 28.872931 L 8.074893 62.635692 C 8.074893 67.687397 10.665098 71.001572 15.999956 71.001572 L 40.975325 71.001572 C 44.286283 71.001572 47.034153 68.253702 47.034153 64.942744 C 47.034153 61.631787 44.286283 58.74234 40.975325 58.74234 L 23.944324 58.74234 L 23.944324 51.959542 L 33.754927 51.959542 C 37.065885 51.959542 39.813755 49.073314 39.813755 45.74305 C 39.813755 42.432092 37.065885 39.545863 33.754927 39.545863 L 23.944324 39.545863 L 23.944324 32.763065 L 40.975325 32.763065 C 44.286283 32.763065 47.034153 29.876836 47.034153 26.562661 C 47.034153 23.235615 44.286283 20.507051 40.975325 20.507051 Z M 86.196125 47.258561 C 91.160953 45.463115 94.191975 41.058157 94.191975 34.207788 C 94.191975 24.979579 88.712324 20.507051 79.043297 20.507051 L 59.563667 20.507051 C 54.22881 20.507051 51.638605 23.818009 51.638605 28.872931 L 51.638605 63.356445 C 51.638605 68.411367 54.22881 71.722325 59.563667 71.722325 C 64.91783 71.722325 67.508036 68.411367 67.508036 63.356445 L 67.508036 51.959542 C 70.098241 51.959542 71.980564 52.683513 73.283711 54.8329 L 81.35035 67.828973 C 82.795073 70.136025 85.401366 71.722325 88.133148 71.722325 C 92.464099 71.722325 96.074298 68.253702 96.074298 63.938839 C 96.074298 62.333233 95.633481 60.907816 94.771152 59.604669 L 89.294718 50.797972 C 88.432389 49.353249 87.409177 48.210984 86.196125 47.258561 Z M 67.508036 39.545863 L 67.508036 32.763065 L 74.728434 32.763065 C 76.877821 32.763065 78.322544 34.066212 78.322544 36.234905 C 78.322544 38.400381 76.877821 39.545863 74.728434 39.545863 Z M 107.455113 20.507051 C 102.120256 20.507051 99.53005 23.818009 99.53005 28.872931 L 99.53005 62.635692 C 99.53005 67.687397 102.120256 71.001572 107.455113 71.001572 L 132.430483 71.001572 C 135.741441 71.001572 138.48931 68.253702 138.48931 64.942744 C 138.48931 61.631787 135.741441 58.74234 132.430483 58.74234 L 115.399481 58.74234 L 115.399481 51.959542 L 125.210085 51.959542 C 128.521043 51.959542 131.268912 49.073314 131.268912 45.74305 C 131.268912 42.432092 128.521043 39.545863 125.210085 39.545863 L 115.399481 39.545863 L 115.399481 32.763065 L 132.430483 32.763065 C 135.741441 32.763065 138.48931 29.876836 138.48931 26.562661 C 138.48931 23.235615 135.741441 20.507051 132.430483 20.507051 Z M 147.99102 20.507051 C 144.097668 20.507051 140.928286 23.676432 140.928286 27.566566 C 140.928286 31.459918 144.097668 34.648606 147.99102 34.648606 L 149.734984 34.648606 L 149.734984 56.8568 L 147.99102 56.8568 C 144.097668 56.8568 140.928286 60.026181 140.928286 63.938839 C 140.928286 67.828973 144.097668 71.001572 147.99102 71.001572 L 167.47065 71.001572 C 171.360784 71.001572 174.549471 67.828973 174.549471 63.938839 C 174.549471 60.026181 171.360784 56.8568 167.47065 56.8568 L 165.601197 56.8568 L 165.601197 34.648606 L 167.47065 34.648606 C 171.360784 34.648606 174.549471 31.459918 174.549471 27.566566 C 174.549471 23.676432 171.360784 20.507051 167.47065 20.507051 Z M 182.899263 20.507051 C 179.005911 20.507051 175.83653 23.676432 175.83653 27.566566 C 175.83653 31.459918 179.005911 34.648606 182.899263 34.648606 L 184.643227 34.648606 L 184.643227 56.8568 L 182.899263 56.8568 C 179.005911 56.8568 175.83653 60.026181 175.83653 63.938839 C 175.83653 67.828973 179.005911 71.001572 182.899263 71.001572 L 202.378893 71.001572 C 206.269027 71.001572 209.457715 67.828973 209.457715 63.938839 C 209.457715 60.026181 206.269027 56.8568 202.378893 56.8568 L 200.509441 56.8568 L 200.509441 34.648606 L 202.378893 34.648606 C 206.269027 34.648606 209.457715 31.459918 209.457715 27.566566 C 209.457715 23.676432 206.269027 20.507051 202.378893 20.507051 Z M 239.452612 19.78308 C 222.862429 19.78308 211.607102 29.876836 211.607102 45.74305 C 211.607102 61.631787 222.862429 71.722325 239.452612 71.722325 C 246.67301 71.722325 252.731838 69.13212 256.62519 65.94665 C 258.349848 64.501927 259.37306 62.635692 259.37306 60.325422 C 259.37306 55.99447 256.766766 53.404265 252.149444 53.404265 C 250.707939 53.404265 249.842392 53.687418 248.680822 54.408171 C 245.51144 56.576864 242.921235 57.719129 239.452612 57.719129 C 232.248303 57.719129 227.476533 53.246601 227.476533 45.74305 C 227.476533 38.242716 232.248303 33.766971 239.452612 33.766971 C 242.921235 33.766971 245.51144 34.928541 248.680822 37.097234 C 249.842392 37.817987 250.707939 38.10114 252.149444 38.10114 C 256.766766 38.10114 259.37306 35.510935 259.37306 31.179983 C 259.37306 28.872931 258.349848 26.98739 256.62519 25.558755 C 252.731838 22.373286 246.67301 19.78308 239.452612 19.78308 Z M 277.398314 20.507051 L 272.044151 20.507051 C 266.709293 20.507051 264.119088 23.818009 264.119088 28.872931 L 264.119088 62.635692 C 264.119088 67.687397 266.709293 71.001572 272.044151 71.001572 L 292.968504 71.001572 C 307.251635 71.001572 314.896762 58.74234 314.896762 45.74305 C 314.896762 32.763065 307.251635 20.507051 292.968504 20.507051 Z M 279.988519 56.8568 L 279.988519 34.648606 L 289.358305 34.648606 C 294.854044 34.648606 299.027331 38.541958 299.027331 45.74305 C 299.027331 52.963448 294.854044 56.8568 289.358305 56.8568 Z M 324.552919 20.507051 C 320.659567 20.507051 317.490185 23.676432 317.490185 27.566566 C 317.490185 31.459918 320.659567 34.648606 324.552919 34.648606 L 326.296883 34.648606 L 326.296883 56.8568 L 324.552919 56.8568 C 320.659567 56.8568 317.490185 60.026181 317.490185 63.938839 C 317.490185 67.828973 320.659567 71.001572 324.552919 71.001572 L 344.032549 71.001572 C 347.922683 71.001572 351.11137 67.828973 351.11137 63.938839 C 351.11137 60.026181 347.922683 56.8568 344.032549 56.8568 L 342.163096 56.8568 L 342.163096 34.648606 L 344.032549 34.648606 C 347.922683 34.648606 351.11137 31.459918 351.11137 27.566566 C 351.11137 23.676432 347.922683 20.507051 344.032549 20.507051 Z M 324.552919 20.507051 " stroke="#ffffff" stroke-width="1.307585" stroke-opacity="1" stroke-miterlimit="4"/><g fill="#ffffff" fill-opacity="1"><g transform="translate(163.502459, 175.029553)"><g><path d="M 2.589844 -13.527344 C 1.660156 -13.527344 1.179688 -12.945312 1.179688 -12.058594 L 1.179688 -1.46875 C 1.179688 -0.578125 1.660156 0 2.589844 0 L 9.507812 0 C 10.125 0 10.664062 -0.542969 10.664062 -1.160156 C 10.664062 -1.777344 10.125 -2.320312 9.507812 -2.320312 L 3.980469 -2.320312 L 3.980469 -5.601562 L 7.574219 -5.601562 C 8.191406 -5.601562 8.734375 -6.144531 8.734375 -6.761719 C 8.734375 -7.382812 8.191406 -7.921875 7.574219 -7.921875 L 3.980469 -7.921875 L 3.980469 -11.207031 L 9.507812 -11.207031 C 10.125 -11.207031 10.664062 -11.746094 10.664062 -12.367188 C 10.664062 -12.984375 10.125 -13.527344 9.507812 -13.527344 Z M 2.589844 -13.527344 "/></g></g></g><g fill="#ffffff" fill-opacity="1"><g transform="translate(174.747003, 175.029553)"><g><path d="M 3.496094 -13.527344 L 2.570312 -13.527344 C 1.640625 -13.527344 1.179688 -12.945312 1.179688 -12.058594 L 1.179688 -1.46875 C 1.179688 -0.578125 1.640625 0 2.570312 0 L 7.769531 0 C 11.613281 0 13.660156 -3.285156 13.660156 -6.761719 C 13.660156 -10.242188 11.574219 -13.527344 7.769531 -13.527344 Z M 3.980469 -2.511719 L 3.980469 -11.015625 L 7.167969 -11.015625 C 9.410156 -11.015625 10.859375 -9.199219 10.859375 -6.761719 C 10.859375 -4.328125 9.46875 -2.511719 7.167969 -2.511719 Z M 3.980469 -2.511719 "/></g></g></g><g fill="#ffffff" fill-opacity="1"><g transform="translate(189.198749, 175.029553)"><g><path d="M 2.570312 -13.71875 C 1.640625 -13.71875 1.179688 -13.140625 1.179688 -12.25 L 1.179688 -5.0625 C 1.179688 -1.894531 3.382812 0.191406 6.878906 0.191406 C 10.375 0.191406 12.597656 -1.894531 12.597656 -5.0625 L 12.597656 -12.25 C 12.597656 -13.140625 12.132812 -13.71875 11.207031 -13.71875 C 10.28125 -13.71875 9.777344 -13.140625 9.777344 -12.25 L 9.777344 -5.371094 C 9.777344 -3.382812 8.773438 -2.300781 6.878906 -2.300781 C 4.984375 -2.300781 3.980469 -3.421875 3.980469 -5.371094 L 3.980469 -12.25 C 3.980469 -13.140625 3.496094 -13.71875 2.570312 -13.71875 Z M 2.570312 -13.71875 "/></g></g></g><g fill="#ffffff" fill-opacity="1"><g transform="translate(202.954962, 175.029553)"><g><path d="M 7.574219 -13.71875 C 3.496094 -13.71875 0.773438 -11.050781 0.773438 -6.761719 C 0.773438 -2.472656 3.496094 0.191406 7.574219 0.191406 C 9.46875 0.191406 10.957031 -0.445312 11.902344 -1.21875 C 12.210938 -1.46875 12.386719 -1.816406 12.386719 -2.222656 C 12.386719 -2.996094 11.921875 -3.457031 11.109375 -3.457031 C 10.859375 -3.457031 10.703125 -3.402344 10.492188 -3.265625 C 9.640625 -2.648438 8.753906 -2.300781 7.574219 -2.300781 C 5.140625 -2.300781 3.574219 -3.941406 3.574219 -6.761719 C 3.574219 -9.582031 5.140625 -11.226562 7.574219 -11.226562 C 8.753906 -11.226562 9.640625 -10.878906 10.492188 -10.261719 C 10.703125 -10.125 10.859375 -10.066406 11.109375 -10.066406 C 11.921875 -10.066406 12.386719 -10.53125 12.386719 -11.304688 C 12.386719 -11.710938 12.210938 -12.058594 11.902344 -12.308594 C 10.957031 -13.082031 9.46875 -13.71875 7.574219 -13.71875 Z M 7.574219 -13.71875 "/></g></g></g><g fill="#ffffff" fill-opacity="1"><g transform="translate(216.131553, 175.029553)"><g><path d="M 6.570312 -13.71875 C 6.550781 -13.71875 6.53125 -13.71875 6.53125 -13.71875 C 5.988281 -13.71875 5.488281 -13.390625 5.253906 -12.90625 L 0.484375 -1.816406 C 0.386719 -1.605469 0.347656 -1.410156 0.347656 -1.199219 C 0.347656 -0.425781 0.964844 0.191406 1.738281 0.191406 C 2.320312 0.191406 2.800781 -0.0585938 3.015625 -0.617188 L 3.980469 -3.246094 L 9.082031 -3.246094 L 10.046875 -0.617188 C 10.261719 -0.0585938 10.742188 0.191406 11.324219 0.191406 C 12.097656 0.191406 12.734375 -0.425781 12.734375 -1.199219 C 12.734375 -1.410156 12.675781 -1.605469 12.578125 -1.816406 L 7.804688 -12.90625 C 7.574219 -13.390625 7.109375 -13.699219 6.570312 -13.71875 Z M 8.289062 -5.429688 L 4.792969 -5.429688 L 6.550781 -10.203125 Z M 8.289062 -5.429688 "/></g></g></g><g fill="#ffffff" fill-opacity="1"><g transform="translate(229.153574, 175.029553)"><g><path d="M 1.585938 -13.527344 C 0.890625 -13.527344 0.347656 -12.964844 0.347656 -12.269531 C 0.347656 -11.574219 0.890625 -11.015625 1.585938 -11.015625 L 4.171875 -11.015625 L 4.171875 -1.273438 C 4.171875 -0.386719 4.636719 0.191406 5.566406 0.191406 C 6.492188 0.191406 6.976562 -0.386719 6.976562 -1.273438 L 6.976562 -11.015625 L 9.546875 -11.015625 C 10.242188 -11.015625 10.800781 -11.574219 10.800781 -12.269531 C 10.800781 -12.964844 10.242188 -13.527344 9.546875 -13.527344 Z M 1.585938 -13.527344 "/></g></g></g><g fill="#ffffff" fill-opacity="1"><g transform="translate(240.243548, 175.029553)"><g><path d="M 1.585938 -13.527344 C 0.890625 -13.527344 0.347656 -12.964844 0.347656 -12.269531 C 0.347656 -11.574219 0.890625 -11.015625 1.585938 -11.015625 L 3.054688 -11.015625 L 3.054688 -2.511719 L 1.585938 -2.511719 C 0.890625 -2.511719 0.347656 -1.953125 0.347656 -1.257812 C 0.347656 -0.558594 0.890625 0 1.585938 0 L 7.324219 0 C 8.019531 0 8.578125 -0.558594 8.578125 -1.257812 C 8.578125 -1.953125 8.019531 -2.511719 7.324219 -2.511719 L 5.835938 -2.511719 L 5.835938 -11.015625 L 7.324219 -11.015625 C 8.019531 -11.015625 8.578125 -11.574219 8.578125 -12.269531 C 8.578125 -12.964844 8.019531 -13.527344 7.324219 -13.527344 Z M 1.585938 -13.527344 "/></g></g></g><g fill="#ffffff" fill-opacity="1"><g transform="translate(249.130979, 175.029553)"><g><path d="M 7.59375 -11.226562 C 10.105469 -11.226562 11.59375 -9.488281 11.59375 -6.761719 C 11.59375 -4.039062 10.105469 -2.320312 7.59375 -2.320312 C 5.0625 -2.320312 3.632812 -4.039062 3.632812 -6.761719 C 3.632812 -9.488281 5.0625 -11.226562 7.59375 -11.226562 Z M 7.59375 -13.71875 C 3.304688 -13.71875 0.8125 -10.859375 0.8125 -6.761719 C 0.8125 -2.667969 3.304688 0.191406 7.59375 0.191406 C 11.882812 0.191406 14.394531 -2.667969 14.394531 -6.761719 C 14.394531 -10.859375 11.882812 -13.71875 7.59375 -13.71875 Z M 7.59375 -13.71875 "/></g></g></g><g fill="#ffffff" fill-opacity="1"><g transform="translate(264.278259, 175.029553)"><g><path d="M 2.570312 -13.699219 C 1.796875 -13.699219 1.179688 -13.101562 1.179688 -12.328125 L 1.179688 -1.199219 C 1.179688 -0.425781 1.796875 0.191406 2.570312 0.191406 C 3.34375 0.191406 3.980469 -0.425781 3.980469 -1.199219 L 3.980469 -8.753906 L 10.125 -0.308594 C 10.375 0.0195312 10.78125 0.175781 11.207031 0.175781 C 11.980469 0.175781 12.597656 -0.425781 12.597656 -1.199219 L 12.597656 -12.328125 C 12.597656 -13.101562 11.980469 -13.71875 11.207031 -13.71875 C 10.414062 -13.71875 9.796875 -13.101562 9.796875 -12.328125 L 9.796875 -4.773438 L 3.652344 -13.214844 C 3.402344 -13.546875 2.996094 -13.699219 2.570312 -13.699219 Z M 2.570312 -13.699219 "/></g></g></g></svg>